<svg width="16" height="16" viewBox="0 0 16 16" fill="none" xmlns="http://www.w3.org/2000/svg">
<path d="M8 0L10.7074 2.37795L14.2547 3.01208L14.0835 6.61147L15.7994 9.78017L12.8786 11.8906L11.4711 15.2078L8 14.24L4.52893 15.2078L3.12137 11.8906L0.200577 9.78017L1.91645 6.61147L1.74535 3.01208L5.29257 2.37795L8 0Z" fill="#9C28B1"/>
<g clip-path="url(#clip0_36_393)">
<path d="M5.99854 8.154L6.83854 9.234C6.86688 9.27083 6.9032 9.30076 6.94477 9.32154C6.98633 9.34232 7.03207 9.35342 7.07854 9.354C7.12426 9.35453 7.16952 9.34486 7.21104 9.3257C7.25255 9.30654 7.28927 9.27837 7.31854 9.24323L9.99854 6.00015" stroke="white" stroke-width="1.33333" stroke-linecap="round" stroke-linejoin="round"/>
</g>
<defs>
<clipPath id="clip0_36_393">
<rect width="5.33333" height="5.33333" fill="white" transform="translate(5.33138 5.33463)"/>
</clipPath>
</defs>
</svg>
