<svg width="18" height="18" viewBox="0 0 18 18" fill="none" xmlns="http://www.w3.org/2000/svg">
<g clip-path="url(#clip0_36_570)">
<path d="M3.85714 9V5.61857C3.86718 4.9539 4.00828 4.29774 4.27234 3.68769C4.53641 3.07764 4.91826 2.52569 5.39601 2.06347C5.87376 1.60125 6.43801 1.23784 7.05645 0.994063C7.67489 0.750288 8.33535 0.63094 9 0.642856C9.66464 0.63094 10.3251 0.750288 10.9435 0.994063C11.562 1.23784 12.1262 1.60125 12.604 2.06347C13.0817 2.52569 13.4636 3.07764 13.7276 3.68769C13.9917 4.29774 14.1328 4.9539 14.1429 5.61857V9M11.5714 15.75C12.2534 15.75 12.9075 15.4791 13.3897 14.9968C13.8719 14.5146 14.1429 13.8606 14.1429 13.1786V10.2857M11.5714 15.75C11.5714 16.1762 11.4021 16.585 11.1007 16.8864C10.7993 17.1878 10.3905 17.3571 9.96428 17.3571H8.03571C7.60947 17.3571 7.20069 17.1878 6.89929 16.8864C6.59789 16.585 6.42857 16.1762 6.42857 15.75C6.42857 15.3238 6.59789 14.915 6.89929 14.6136C7.20069 14.3122 7.60947 14.1429 8.03571 14.1429H9.96428C10.3905 14.1429 10.7993 14.3122 11.1007 14.6136C11.4021 14.915 11.5714 15.3238 11.5714 15.75ZM1.92857 7.07143H3.21428C3.38478 7.07143 3.54829 7.13916 3.66885 7.25972C3.78941 7.38027 3.85714 7.54379 3.85714 7.71428V11.5714C3.85714 11.7419 3.78941 11.9054 3.66885 12.026C3.54829 12.1466 3.38478 12.2143 3.21428 12.2143H1.92857C1.58757 12.2143 1.26055 12.0788 1.01943 11.8377C0.778312 11.5966 0.642853 11.2696 0.642853 10.9286V8.35714C0.642853 8.01615 0.778312 7.68912 1.01943 7.448C1.26055 7.20689 1.58757 7.07143 1.92857 7.07143ZM16.0714 12.2143H14.7857C14.6152 12.2143 14.4517 12.1466 14.3311 12.026C14.2106 11.9054 14.1429 11.7419 14.1429 11.5714V7.71428C14.1429 7.54379 14.2106 7.38027 14.3311 7.25972C14.4517 7.13916 14.6152 7.07143 14.7857 7.07143H16.0714C16.4124 7.07143 16.7394 7.20689 16.9806 7.448C17.2217 7.68912 17.3571 8.01615 17.3571 8.35714V10.9286C17.3571 11.2696 17.2217 11.5966 16.9806 11.8377C16.7394 12.0788 16.4124 12.2143 16.0714 12.2143Z" stroke="#545454" stroke-width="1.28571" stroke-linecap="round" stroke-linejoin="round"/>
</g>
<defs>
<clipPath id="clip0_36_570">
<rect width="18" height="18" fill="white"/>
</clipPath>
</defs>
</svg>
