<svg width="41" height="34" viewBox="0 0 41 34" fill="none" xmlns="http://www.w3.org/2000/svg">
<rect x="0.75" y="0.75" width="32.5" height="32.5" rx="16.25" fill="white"/>
<rect x="0.75" y="0.75" width="32.5" height="32.5" rx="16.25" stroke="#EBEBEB" stroke-width="0.5"/>
<g clip-path="url(#clip0_2001_137)">
<path d="M11.8571 17V13.6186C11.8672 12.9539 12.0083 12.2977 12.2723 11.6877C12.5364 11.0776 12.9183 10.5257 13.396 10.0635C13.8738 9.60125 14.438 9.23784 15.0565 8.99406C15.6749 8.75029 16.3354 8.63094 17 8.64286C17.6646 8.63094 18.3251 8.75029 18.9435 8.99406C19.562 9.23784 20.1262 9.60125 20.604 10.0635C21.0817 10.5257 21.4636 11.0776 21.7276 11.6877C21.9917 12.2977 22.1328 12.9539 22.1429 13.6186V17M19.5714 23.75C20.2534 23.75 20.9075 23.4791 21.3897 22.9968C21.8719 22.5146 22.1429 21.8606 22.1429 21.1786V18.2857M19.5714 23.75C19.5714 24.1762 19.4021 24.585 19.1007 24.8864C18.7993 25.1878 18.3905 25.3571 17.9643 25.3571H16.0357C15.6095 25.3571 15.2007 25.1878 14.8993 24.8864C14.5979 24.585 14.4286 24.1762 14.4286 23.75C14.4286 23.3238 14.5979 22.915 14.8993 22.6136C15.2007 22.3122 15.6095 22.1429 16.0357 22.1429H17.9643C18.3905 22.1429 18.7993 22.3122 19.1007 22.6136C19.4021 22.915 19.5714 23.3238 19.5714 23.75ZM9.92857 15.0714H11.2143C11.3848 15.0714 11.5483 15.1392 11.6688 15.2597C11.7894 15.3803 11.8571 15.5438 11.8571 15.7143V19.5714C11.8571 19.7419 11.7894 19.9054 11.6688 20.026C11.5483 20.1466 11.3848 20.2143 11.2143 20.2143H9.92857C9.58757 20.2143 9.26055 20.0788 9.01943 19.8377C8.77831 19.5966 8.64285 19.2696 8.64285 18.9286V16.3571C8.64285 16.0161 8.77831 15.6891 9.01943 15.448C9.26055 15.2069 9.58757 15.0714 9.92857 15.0714ZM24.0714 20.2143H22.7857C22.6152 20.2143 22.4517 20.1466 22.3311 20.026C22.2106 19.9054 22.1429 19.7419 22.1429 19.5714V15.7143C22.1429 15.5438 22.2106 15.3803 22.3311 15.2597C22.4517 15.1392 22.6152 15.0714 22.7857 15.0714H24.0714C24.4124 15.0714 24.7394 15.2069 24.9806 15.448C25.2217 15.6891 25.3571 16.0161 25.3571 16.3571V18.9286C25.3571 19.2696 25.2217 19.5966 24.9806 19.8377C24.7394 20.0788 24.4124 20.2143 24.0714 20.2143Z" stroke="#545454" stroke-width="1.28571" stroke-linecap="round" stroke-linejoin="round"/>
</g>
<rect x="20" y="1" width="21" height="10" rx="5" fill="#FCEFED"/>
<path d="M27.5681 3.216V9H26.4881V6.472H23.7721V9H22.6921V3.216H23.7721V5.704H26.4881V3.216H27.5681ZM31.2392 6.476C31.2392 6.348 31.2205 6.228 31.1832 6.116C31.1485 6.00133 31.0952 5.90133 31.0232 5.816C30.9512 5.73067 30.8592 5.664 30.7472 5.616C30.6379 5.56533 30.5099 5.54 30.3632 5.54C30.0779 5.54 29.8525 5.62133 29.6872 5.784C29.5245 5.94667 29.4205 6.17733 29.3752 6.476H31.2392ZM29.3552 7.072C29.3712 7.28267 29.4085 7.46533 29.4672 7.62C29.5259 7.772 29.6032 7.89867 29.6992 8C29.7952 8.09867 29.9085 8.17333 30.0392 8.224C30.1725 8.272 30.3192 8.296 30.4792 8.296C30.6392 8.296 30.7765 8.27733 30.8912 8.24C31.0085 8.20267 31.1099 8.16133 31.1952 8.116C31.2832 8.07067 31.3592 8.02933 31.4232 7.992C31.4899 7.95467 31.5539 7.936 31.6152 7.936C31.6979 7.936 31.7592 7.96667 31.7992 8.028L32.0832 8.388C31.9739 8.516 31.8512 8.624 31.7152 8.712C31.5792 8.79733 31.4365 8.86667 31.2872 8.92C31.1405 8.97067 30.9899 9.00667 30.8352 9.028C30.6832 9.04933 30.5352 9.06 30.3912 9.06C30.1059 9.06 29.8405 9.01333 29.5952 8.92C29.3499 8.824 29.1365 8.684 28.9552 8.5C28.7739 8.31333 28.6312 8.084 28.5272 7.812C28.4232 7.53733 28.3712 7.22 28.3712 6.86C28.3712 6.58 28.4165 6.31733 28.5072 6.072C28.5979 5.824 28.7272 5.60933 28.8952 5.428C29.0659 5.244 29.2725 5.09867 29.5152 4.992C29.7605 4.88533 30.0365 4.832 30.3432 4.832C30.6019 4.832 30.8405 4.87333 31.0592 4.956C31.2779 5.03867 31.4659 5.16 31.6232 5.32C31.7805 5.47733 31.9032 5.672 31.9912 5.904C32.0819 6.13333 32.1272 6.396 32.1272 6.692C32.1272 6.84133 32.1112 6.94267 32.0792 6.996C32.0472 7.04667 31.9859 7.072 31.8952 7.072H29.3552ZM33.8886 3.056V9H32.9006V3.056H33.8886ZM35.881 7.936C35.993 8.072 36.1143 8.168 36.245 8.224C36.3783 8.28 36.5223 8.308 36.677 8.308C36.8263 8.308 36.961 8.28 37.081 8.224C37.201 8.168 37.3023 8.08267 37.385 7.968C37.4703 7.85333 37.5357 7.70933 37.581 7.536C37.6263 7.36 37.649 7.15333 37.649 6.916C37.649 6.676 37.629 6.47333 37.589 6.308C37.5517 6.14 37.497 6.004 37.425 5.9C37.353 5.796 37.265 5.72 37.161 5.672C37.0597 5.624 36.9437 5.6 36.813 5.6C36.6077 5.6 36.433 5.644 36.289 5.732C36.145 5.81733 36.009 5.93867 35.881 6.096V7.936ZM35.829 5.456C35.997 5.26667 36.1877 5.11333 36.401 4.996C36.6143 4.87867 36.865 4.82 37.153 4.82C37.377 4.82 37.581 4.86667 37.765 4.96C37.9517 5.05333 38.1117 5.18933 38.245 5.368C38.381 5.544 38.485 5.76267 38.557 6.024C38.6317 6.28267 38.669 6.58 38.669 6.916C38.669 7.22267 38.6277 7.50667 38.545 7.768C38.4623 8.02933 38.3437 8.256 38.189 8.448C38.037 8.64 37.8517 8.79067 37.633 8.9C37.417 9.00667 37.1743 9.06 36.905 9.06C36.6757 9.06 36.4797 9.02533 36.317 8.956C36.1543 8.884 36.009 8.78533 35.881 8.66V10.34H34.893V4.896H35.497C35.625 4.896 35.709 4.956 35.749 5.076L35.829 5.456Z" fill="#BF0303"/>
<defs>
<clipPath id="clip0_2001_137">
<rect width="18" height="18" fill="white" transform="translate(8 8)"/>
</clipPath>
</defs>
</svg>
