<svg width="24" height="24" viewBox="0 0 24 24" fill="none" xmlns="http://www.w3.org/2000/svg">
<path d="M12.0005 7.01123V10.0036" stroke="#545454" stroke-width="1.34793" stroke-miterlimit="10" stroke-linecap="round"/>
<path d="M12.0184 3.02148C8.71147 3.02148 6.03361 5.69935 6.03361 9.00624V10.8933C6.03361 11.5044 5.782 12.421 5.46749 12.9422L4.32625 14.8472C3.62534 16.0244 4.11059 17.3364 5.40459 17.7677C9.69994 19.1965 14.3458 19.1965 18.6411 17.7677C19.8542 17.3633 20.3754 15.9435 19.7194 14.8472L18.5782 12.9422C18.2637 12.421 18.0121 11.4954 18.0121 10.8933V9.00624C18.0031 5.71732 15.3073 3.02148 12.0184 3.02148Z" stroke="#545454" stroke-width="1.34793" stroke-miterlimit="10" stroke-linecap="round"/>
<path d="M14.9928 18.1357C14.9928 19.7802 13.6449 21.1281 12.0004 21.1281C11.1827 21.1281 10.4279 20.7866 9.88869 20.2475C9.34953 19.7083 9.00806 18.9535 9.00806 18.1357" stroke="#545454" stroke-width="1.34793" stroke-miterlimit="10"/>
</svg>
